<?xml version="1.0" encoding="utf-8"?>
<!-- Generator: Adobe Illustrator 21.1.0, SVG Export Plug-In . SVG Version: 6.00 Build 0)  -->
<svg version="1.1" id="Layer_1" xmlns="http://www.w3.org/2000/svg" xmlns:xlink="http://www.w3.org/1999/xlink" x="0px" y="0px"
	 viewBox="0 0 122 84" style="enable-background:new 0 0 122 84;" xml:space="preserve">
<style type="text/css">
	.st0{fill:#60594E;}
	.st1{fill:#FFFFFF;}
	.st2{fill:#6FD5F9;}
	.st3{fill:#F59209;}
	.st4{fill:#F8FFFB;}
	.st5{fill:#FA9F2F;}
	.st6{fill:#E15D2B;}
</style>
<g transform="matrix( 1, 0, 0, 1, 0,19.15) ">
	<g transform="matrix( 1, 0, 0, 1, 0,0) ">
		<g>
			<g id="infw_phase1_clarifier1_in_valve_0_Layer0_0_FILL">
				<path class="st0" d="M21.8,0.4c-0.3-0.3-0.6-0.4-1-0.4H8.3C7.9,0,7.6,0.1,7.3,0.4C7.1,0.7,6.9,1,6.9,1.4c0,0.4,0.1,0.7,0.4,1
					c0.3,0.2,0.6,0.3,0.9,0.3h4.1c0,0.6,0.3,1.1,0.8,1.6c0.1,0.2,0.3,0.3,0.4,0.3H12v2.2c-0.3,0.2-0.7,0.5-1.1,0.9S10.3,8.6,10,8.9
					H0v5.4h10c0.3,0.4,0.6,0.8,0.9,1.1c1.1,1.1,2.4,1.6,3.9,1.6c1.5,0,2.8-0.5,3.9-1.6c0.4-0.3,0.6-0.7,0.9-1.1h6.3V8.9h-6.3
					c-0.2-0.4-0.5-0.8-0.9-1.2s-0.8-0.7-1.2-1V4.7H16c0.2-0.1,0.3-0.2,0.5-0.3c0.4-0.5,0.6-1,0.7-1.6h3.6c0.4,0,0.7-0.1,1-0.3
					c0.3-0.3,0.5-0.6,0.5-1S22.1,0.7,21.8,0.4z"/>
			</g>
		</g>
	</g>
</g>
<g transform="matrix( 1, 0, 0, 1, 96.5,56.65) ">
	<g transform="matrix( 1, 0, 0, 1, 0,0) ">
		<g>
			<g id="infw_phase1_clarifier1_out_valve_0_Layer0_0_FILL">
				<path class="st0" d="M21.8,0.4c-0.3-0.3-0.6-0.4-1-0.4H8.3C7.9,0,7.6,0.1,7.3,0.4C7.1,0.7,6.9,1,6.9,1.4c0,0.4,0.1,0.7,0.4,1
					c0.3,0.2,0.6,0.3,0.9,0.3h4.1c0,0.6,0.3,1.1,0.8,1.6c0.1,0.2,0.3,0.3,0.4,0.3H12v2.2c-0.3,0.2-0.7,0.5-1.1,0.9S10.3,8.6,10,8.9
					H-3v5.4H10c0.3,0.4,0.6,0.8,0.9,1.1c1.1,1.1,2.4,1.6,3.9,1.6c1.5,0,2.8-0.5,3.9-1.6c0.4-0.3,0.6-0.7,0.9-1.1h6.3V8.9h-6.3
					c-0.2-0.4-0.5-0.8-0.9-1.2s-0.8-0.7-1.2-1V4.7H16c0.2-0.1,0.3-0.2,0.5-0.3c0.4-0.5,0.6-1,0.7-1.6h3.6c0.4,0,0.7-0.1,1-0.3
					c0.3-0.3,0.5-0.6,0.5-1S22.1,0.7,21.8,0.4z"/>
			</g>
		</g>
	</g>
</g>
<path class="st1" d="M63.2,74.6c-0.2,0-0.4,0-0.6,0h0c-0.2,0-0.4,0-0.6,0v6.6c0.2,0,0.4,0,0.6,0h0c0.2,0,0.5,0,0.6,0V74.6
	 M50.7,72.4c-0.2-0.1-0.4-0.2-0.6-0.2c-0.2-0.1-0.4-0.2-0.6-0.3L46.9,78c0.2,0.1,0.4,0.1,0.6,0.2c0.2,0.1,0.4,0.2,0.6,0.3L50.7,72.4
	 M39,64.4l-4.6,4.6c0.2,0.2,0.3,0.3,0.5,0.5c0,0,0.1,0.1,0.1,0.2c0.1,0.1,0.2,0.2,0.3,0.4l4.7-4.7c-0.1-0.1-0.3-0.2-0.4-0.3
	c0,0-0.1-0.1-0.2-0.2C39.3,64.8,39.2,64.6,39,64.4 M32.5,54.4c-0.1-0.2-0.2-0.4-0.2-0.6l-6.1,2.5c0.1,0.2,0.1,0.4,0.2,0.6
	c0.1,0.2,0.2,0.4,0.3,0.6l6-2.5C32.6,54.8,32.6,54.6,32.5,54.4 M30.2,42.6c0-0.1,0-0.2,0-0.4c0-0.1,0-0.2,0-0.3c0-0.2,0-0.4,0-0.7
	h-6.5c-0.1,0.2-0.1,0.5-0.1,0.7c0,0.1,0,0.2,0,0.3c0,0.1,0,0.3,0,0.4H30.2 M32.9,29l-6.1-2.5c-0.1,0.2-0.2,0.4-0.3,0.6
	c-0.1,0.2-0.2,0.4-0.2,0.6l6.1,2.5c0.1-0.2,0.2-0.4,0.2-0.6C32.7,29.4,32.8,29.2,32.9,29 M35.6,14.1c-0.2,0.2-0.3,0.3-0.5,0.5
	c-0.1,0-0.1,0.1-0.2,0.1c-0.1,0.1-0.2,0.2-0.3,0.4l4.6,4.6c0.1-0.1,0.2-0.2,0.3-0.4c0.1,0,0.1-0.1,0.2-0.1c0.2-0.2,0.3-0.3,0.5-0.5
	L35.6,14.1 M50.8,12l-2.6-6.1C48,6,47.8,6.1,47.6,6.2c-0.2,0.1-0.4,0.2-0.6,0.2l2.6,6.1c0.2-0.1,0.4-0.2,0.6-0.3
	C50.4,12.2,50.6,12.1,50.8,12 M62.5,3.3L62.5,3.3c-0.3,0-0.5,0-0.7,0v6.6c0.2,0,0.4,0,0.6,0h0c0.2,0,0.5,0,0.6,0V3.3
	C63,3.3,62.8,3.3,62.5,3.3 M77.6,78.2c0.2-0.1,0.4-0.2,0.6-0.2l-2.6-6.1c-0.2,0.1-0.4,0.2-0.6,0.3c-0.2,0.1-0.4,0.2-0.6,0.2l2.6,6.1
	C77.2,78.4,77.4,78.3,77.6,78.2 M86,64.5c-0.2,0.2-0.3,0.3-0.5,0.4c0,0.1,0,0.1-0.1,0.1c-0.2,0.1-0.3,0.3-0.4,0.4l4.6,4.6
	c0.2-0.1,0.3-0.3,0.4-0.4c0.1,0,0.1-0.1,0.1-0.1c0.2-0.2,0.3-0.3,0.5-0.5L86,64.5 M92.9,53.8c-0.1,0.2-0.2,0.4-0.3,0.6
	c-0.1,0.2-0.2,0.4-0.2,0.6l6,2.6c0.1-0.2,0.2-0.5,0.2-0.6c0.1-0.2,0.2-0.4,0.2-0.6L92.9,53.8 M98.5,27c-0.1-0.2-0.2-0.4-0.2-0.6
	l-6.1,2.5c0.1,0.2,0.2,0.4,0.3,0.6c0.1,0.2,0.2,0.4,0.3,0.6l6-2.5C98.7,27.4,98.6,27.2,98.5,27 M89.9,14.6c-0.2-0.2-0.3-0.3-0.5-0.5
	l-4.6,4.6c0.1,0.2,0.3,0.3,0.5,0.5c0.1,0.1,0.1,0.1,0.2,0.2c0.1,0.1,0.2,0.3,0.3,0.4l4.7-4.6c-0.1-0.1-0.3-0.3-0.4-0.4
	C90,14.7,89.9,14.6,89.9,14.6 M77.4,6.2C77.2,6.1,77,6,76.8,5.9L74.2,12c0.2,0.1,0.4,0.1,0.6,0.2c0.2,0.1,0.4,0.2,0.6,0.3L78,6.4
	C77.8,6.3,77.6,6.2,77.4,6.2z"/>
<path class="st2" d="M50.7,72.4l-2.6,6.1c4.2,1.7,8.8,2.6,13.7,2.6v-6.6c-0.6,0-1.3,0-1.9-0.1c-0.6,0-1.1-0.1-1.7-0.2
	C55.6,74,53,73.4,50.7,72.4 M40,65.4l-4.7,4.7c3.5,3.4,7.4,6.1,11.6,7.9l2.5-6.1C46,70.4,42.9,68.2,40,65.4 M32.7,55l-6,2.5
	c1.8,4.2,4.3,8,7.7,11.5l4.6-4.6C36.3,61.6,34.2,58.4,32.7,55 M26.2,56.3l6.1-2.5c-1.3-3.5-2-7.2-2-11.2h-6.6
	C23.7,47.5,24.5,52,26.2,56.3 M32.4,30.2l-6.1-2.5c-1.7,4.2-2.6,8.7-2.6,13.5h6.5C30.3,37.3,31,33.6,32.4,30.2 M39.3,19.7L34.7,15
	c-3.4,3.5-6,7.3-7.8,11.4l6.1,2.5C34.4,25.7,36.6,22.6,39.3,19.7 M49.6,12.5L47,6.4c-4.1,1.8-7.9,4.4-11.4,7.7l4.7,4.6
	C43.1,16.1,46.2,14,49.6,12.5 M61.8,9.9V3.3C57,3.4,52.5,4.2,48.3,5.9l2.6,6.1c2.3-0.9,4.8-1.5,7.4-1.8c0.6-0.1,1.1-0.1,1.7-0.2
	C60.6,9.9,61.2,9.9,61.8,9.9 M75.6,71.9l2.6,6.1c4.2-1.8,8-4.5,11.5-7.9L85,65.4C82.2,68.2,79,70.4,75.6,71.9 M77,78.5l-2.6-6.1
	c-2.4,0.9-5,1.6-7.7,1.9c-0.6,0.1-1.1,0.1-1.7,0.2c-0.6,0.1-1.2,0.1-1.8,0.1v6.6C68.1,81.1,72.7,80.2,77,78.5 M98.9,56.3
	c1-2.7,1.8-5.5,2.2-8.6h-6.6c-0.3,2.1-0.8,4.1-1.5,6L98.9,56.3 M98.4,57.6l-6-2.6c-1.5,3.5-3.7,6.7-6.4,9.6l4.6,4.6
	C94,65.6,96.6,61.7,98.4,57.6 M92.7,30.2c0.7,1.9,1.3,4,1.7,6.1h6.6c-0.5-3-1.2-5.9-2.3-8.6L92.7,30.2 M74.2,12l2.5-6.1
	C72.6,4.2,68,3.4,63.2,3.3v6.6c0.6,0,1.2,0.1,1.8,0.1c0.6,0,1.2,0.1,1.7,0.2C69.3,10.5,71.8,11.1,74.2,12 M84.8,18.7l4.6-4.6
	c-3.5-3.4-7.3-5.9-11.4-7.7l-2.6,6.1C78.8,13.9,81.9,16,84.8,18.7 M90.4,15l-4.7,4.6c2.8,2.8,4.9,5.9,6.4,9.2l6.1-2.5
	C96.4,22.3,93.8,18.5,90.4,15z"/>
<path class="st3" d="M92.4,12.3c-0.1,0-0.1-0.1-0.2-0.2C88.1,8.1,83.6,5,78.6,3c-4.9-2-10.3-3-16.1-3h0c-5.8,0-11.2,1-16.1,3
	c-4.9,2.1-9.4,5.1-13.5,9.2c-0.1,0-0.1,0.1-0.2,0.1c-4.1,4.1-7.1,8.6-9.2,13.5c-2.1,4.9-3.1,10.3-3.2,16.1c0,0.1,0,0.2,0,0.3
	c0,5.7,1,11.1,3,16c2.1,5,5.1,9.5,9.2,13.7c0.1,0.1,0.1,0.1,0.2,0.2c4.1,4.1,8.6,7.2,13.6,9.2c5,2.1,10.4,3.1,16.2,3.1h0
	c5.9,0,11.3-1,16.3-3.1c5-2.1,9.5-5.2,13.6-9.2c0-0.1,0-0.1,0.1-0.2c4.1-4.2,7.2-8.7,9.2-13.7c1.4-3.3,2.3-6.8,2.7-10.5h-3.4
	c-0.4,3-1.1,5.9-2.2,8.6c-0.1,0.2-0.2,0.4-0.2,0.6c-0.1,0.2-0.2,0.4-0.2,0.6c-1.8,4.2-4.4,8-7.8,11.6c-0.1,0.2-0.3,0.3-0.5,0.5
	c0,0.1,0,0.1-0.1,0.1c-0.1,0.1-0.2,0.2-0.4,0.4c-3.5,3.4-7.3,6.1-11.5,7.9c-0.2,0.1-0.4,0.1-0.6,0.2c-0.2,0.1-0.4,0.2-0.6,0.3
	c-4.3,1.7-8.9,2.6-13.8,2.6c-0.2,0-0.4,0-0.6,0h0c-0.2,0-0.4,0-0.6,0c-4.9-0.1-9.5-1-13.7-2.6c-0.2-0.1-0.4-0.2-0.6-0.3
	c-0.2-0.1-0.4-0.2-0.6-0.2c-4.2-1.9-8.1-4.5-11.6-7.9c-0.1-0.1-0.2-0.3-0.3-0.4c-0.1-0.1-0.1-0.1-0.1-0.2c-0.2-0.2-0.3-0.3-0.5-0.5
	c-3.4-3.5-6-7.4-7.7-11.5c-0.1-0.2-0.2-0.5-0.3-0.6c-0.1-0.2-0.2-0.4-0.2-0.6c-1.7-4.2-2.5-8.8-2.6-13.7c0-0.1,0-0.2,0-0.4
	c0-0.1,0-0.2,0-0.3c0-0.2,0-0.4,0.1-0.7c0.1-4.9,0.9-9.4,2.6-13.5c0.1-0.2,0.1-0.4,0.2-0.6c0.1-0.2,0.2-0.4,0.3-0.6
	c1.8-4.1,4.4-7.9,7.8-11.4c0.1-0.1,0.2-0.3,0.3-0.4c0.1,0,0.1-0.1,0.2-0.1c0.1-0.2,0.3-0.3,0.5-0.5c3.5-3.3,7.3-5.9,11.4-7.7
	c0.2-0.1,0.4-0.2,0.6-0.2C47.8,6.1,48,6,48.3,5.9c4.2-1.7,8.7-2.5,13.6-2.6c0.2,0,0.4,0,0.6,0h0c0.2,0,0.5,0,0.6,0
	c4.9,0.1,9.4,0.9,13.6,2.6C77,6,77.2,6.1,77.4,6.2c0.2,0.1,0.4,0.2,0.6,0.2c4.1,1.8,7.9,4.3,11.4,7.7c0.2,0.2,0.3,0.3,0.5,0.5
	c0.1,0.1,0.1,0.1,0.2,0.1c0.1,0.1,0.2,0.2,0.4,0.4c3.4,3.4,6,7.2,7.8,11.4c0.1,0.2,0.2,0.4,0.2,0.6c0.1,0.2,0.2,0.4,0.3,0.6
	c1.1,2.7,1.8,5.6,2.3,8.6h3.4c-0.5-3.7-1.4-7.2-2.8-10.5C99.5,20.9,96.5,16.4,92.4,12.3z"/>
<g>
	<circle class="st0" cx="62.4" cy="42.2" r="32.4"/>
</g>
<path class="st4" d="M65,10v5.1h-5V10c-0.6,0-1.1,0.1-1.7,0.2v37.6v0.6v26c0.6,0.1,1.1,0.1,1.7,0.2v-5h5v5c0.6,0,1.2-0.1,1.7-0.2
	v-26v-0.6V10.2C66.1,10.1,65.6,10,65,10z M60,16.1h5v4.3h-5V16.1z M60,21.4h5v4h-5V21.4z M60,26.4h5v4.3h-5V26.4z M65,68.5h-5v-4.3
	h5V68.5z M65,63.2h-5v-4h5V63.2z M65,58.2h-5v-4.3h5V58.2z M65,48.3V53h-5v-4.7v-0.6V31.6h5v16.1V48.3z"/>
<g transform="matrix( 1, 0, 0, 1, 0,0) ">
	<g>
		<g id="infw_phase1_clarifier1_0_Layer0_0_MEMBER_0_MEMBER_0_MEMBER_0_FILL">
			<path class="st5" d="M114.4,45.2v-6.4H58.3v6.4H114.4z"/>
			<path class="st6" d="M114.4,47.7v-2.5H58.3v2.5H114.4 M114.4,38.9v-2.6H58.3v2.6H114.4z"/>
		</g>
	</g>
</g>
</svg>
